<svg id="livetype" xmlns="http://www.w3.org/2000/svg" viewBox="0 0 135.02 40"><rect x="0.02" y="0.14" width="135" height="40" rx="5" fill="#fff"/><path d="M130,.94a4.21,4.21,0,0,1,4.2,4.2v30a4.2,4.2,0,0,1-4.2,4.2H5a4.2,4.2,0,0,1-4.2-4.2v-30A4.21,4.21,0,0,1,5,.94H130m0-.8H5a5,5,0,0,0-5,5v30a5,5,0,0,0,5,5H130a5,5,0,0,0,5-5v-30a5,5,0,0,0-5-5Z" fill="#a6a6a6"/><path d="M44.51,10h2v2.91a6.51,6.51,0,0,1-1,.23,7.4,7.4,0,0,1-1.13.08,2.75,2.75,0,0,1-2.12-.81,3.22,3.22,0,0,1-.76-2.27A3.41,3.41,0,0,1,42,8.52,2.48,2.48,0,0,1,43,7.45a3.42,3.42,0,0,1,1.64-.37,4.43,4.43,0,0,1,1.79.35L46.19,8a4,4,0,0,0-1.56-.34,2.22,2.22,0,0,0-1.71.65,2.5,2.5,0,0,0-.61,1.8A2.61,2.61,0,0,0,42.9,12a2.26,2.26,0,0,0,1.74.63,4.89,4.89,0,0,0,1.21-.15V10.63H44.51Z" fill="#131313"/><path d="M51.49,13.14H48.15v-6h3.34v.62H48.85V9.71h2.48v.61H48.85v2.2h2.64Z" fill="#131313"/><path d="M54.82,13.14h-.69V7.78h-1.9V7.16h4.49v.62h-1.9Z" fill="#131313"/><path d="M60.13,13.14v-6h.69v6Z" fill="#131313"/><path d="M64.47,13.14h-.69V7.78h-1.9V7.16h4.49v.62h-1.9Z" fill="#131313"/><path d="M75,10.14a3.31,3.31,0,0,1-.72,2.26,2.92,2.92,0,0,1-4.06,0,3.32,3.32,0,0,1-.72-2.28,3.29,3.29,0,0,1,.72-2.27,2.58,2.58,0,0,1,2-.8,2.54,2.54,0,0,1,2,.82A3.27,3.27,0,0,1,75,10.14Zm-4.76,0A2.89,2.89,0,0,0,70.72,12a1.85,1.85,0,0,0,1.51.63,1.82,1.82,0,0,0,1.5-.63,2.87,2.87,0,0,0,.51-1.85,2.85,2.85,0,0,0-.51-1.83,1.83,1.83,0,0,0-1.5-.62,1.85,1.85,0,0,0-1.51.63A2.82,2.82,0,0,0,70.21,10.14Z" fill="#131313"/><path d="M81.15,13.14h-.8l-3.27-5h0c0,.59.07,1.13.07,1.62v3.4h-.65v-6h.79l3.26,5h0c0-.07,0-.31,0-.71s0-.68,0-.86V7.16h.65Z" fill="#131313"/><path d="M68.16,21.9a4.25,4.25,0,1,0,4.27,4.25A4.18,4.18,0,0,0,68.16,21.9Zm0,6.83a2.59,2.59,0,1,1,2.4-2.58A2.46,2.46,0,0,1,68.16,28.73ZM58.84,21.9a4.25,4.25,0,1,0,4.27,4.25A4.19,4.19,0,0,0,58.84,21.9Zm0,6.83a2.59,2.59,0,1,1,2.4-2.58A2.46,2.46,0,0,1,58.84,28.73ZM47.76,23.2V25h4.32a3.83,3.83,0,0,1-1,2.28,4.46,4.46,0,0,1-3.34,1.32,4.8,4.8,0,0,1,0-9.6A4.63,4.63,0,0,1,51,20.28L52.29,19a6.3,6.3,0,0,0-4.53-1.82,6.61,6.61,0,1,0,0,13.21,6,6,0,0,0,4.61-1.85,6,6,0,0,0,1.56-4.22,6.31,6.31,0,0,0-.09-1.13Zm45.31,1.4a3.94,3.94,0,0,0-3.64-2.7,4,4,0,0,0-4,4.25,4.16,4.16,0,0,0,4.22,4.25,4.21,4.21,0,0,0,3.54-1.88l-1.45-1a2.42,2.42,0,0,1-2.09,1.18,2.16,2.16,0,0,1-2.06-1.29l5.69-2.35ZM87.27,26a2.34,2.34,0,0,1,2.23-2.48,1.64,1.64,0,0,1,1.57.9Zm-4.62,4.12h1.87V17.64H82.65Zm-3.06-7.29h-.07a2.94,2.94,0,0,0-2.24-1,4.25,4.25,0,0,0,0,8.5,2.88,2.88,0,0,0,2.24-1h.07v.62a2.18,2.18,0,0,1-2.27,2.49A2.36,2.36,0,0,1,75.17,31l-1.62.68a4,4,0,0,0,3.77,2.51c2.19,0,4-1.29,4-4.43V22.15H79.59Zm-2.15,5.88a2.59,2.59,0,0,1,0-5.16,2.4,2.4,0,0,1,2.28,2.59A2.38,2.38,0,0,1,77.44,28.73Zm24.39-11.09H97.35v12.5h1.87V25.41h2.61a3.89,3.89,0,1,0,0-7.77Zm0,6H99.22V19.38h2.65a2.15,2.15,0,1,1,0,4.29Zm11.54-1.8a3.5,3.5,0,0,0-3.33,1.92l1.65.69a2,2,0,0,1,3.67.69v.13a4.06,4.06,0,0,0-2-.48c-1.78,0-3.6,1-3.6,2.81A2.89,2.89,0,0,0,113,30.38a2.64,2.64,0,0,0,2.38-1.22h.06v1h1.8V25.33C117.2,23.11,115.54,21.87,113.41,21.87Zm-.23,6.85c-.61,0-1.46-.3-1.46-1.06,0-1,1.06-1.33,2-1.33a3.22,3.22,0,0,1,1.7.42A2.26,2.26,0,0,1,113.18,28.72Zm10.58-6.57-2.14,5.42h-.06l-2.22-5.42h-2l3.33,7.57-1.9,4.21h1.95l5.13-11.78Zm-16.8,8h1.86V17.64H107Z" fill="#131313"/><path d="M20.74,19.57,10.09,30.87h0a2.89,2.89,0,0,0,4.24,1.74l0,0,12-6.92Z" fill="#ea4335"/><path d="M31.51,17.64h0l-5.18-3L20.5,19.82l5.84,5.85,5.15-3a2.87,2.87,0,0,0,0-5.06Z" fill="#fbbc04"/><path d="M10.09,9.42a3,3,0,0,0-.1.74v20a3.07,3.07,0,0,0,.1.74l11-11Z" fill="#4285f4"/><path d="M20.82,20.14l5.51-5.5-12-6.94a2.84,2.84,0,0,0-1.49-.42,2.89,2.89,0,0,0-2.78,2.14h0Z" fill="#34a853"/></svg>