<?xml version="1.0" encoding="utf-8"?>
<!-- Generator: Adobe Illustrator 24.0.1, SVG Export Plug-In . SVG Version: 6.00 Build 0)  -->
<svg version="1.1" id="Layer_1" xmlns="http://www.w3.org/2000/svg" xmlns:xlink="http://www.w3.org/1999/xlink" x="0px" y="0px"
	 viewBox="0 0 512 512" style="enable-background:new 0 0 512 512;" xml:space="preserve">
<style type="text/css">
	.st0{fill:#00F388;}
	.st1{fill:#191919;}
</style>
<g>
	<path class="st0" d="M446.09,512H66.55c-36.62,0-66.32-29.69-66.32-66.32V66.15c0-36.62,29.69-66.32,66.32-66.32h379.54
		c36.62,0,66.32,29.69,66.32,66.32v379.54C512.4,482.31,482.71,512,446.09,512z"/>
	<g>
		<g>
			<rect x="231.26" y="171.07" class="st1" width="0.06" height="44.07"/>
		</g>
		<g>
			<path class="st1" d="M168.08,276.09c-5.54,7.25-14.31,10.87-26.33,10.87c-12.02,0-20.8-3.62-26.33-10.87
				c-5.54-7.25-8.3-16.02-8.3-26.33V123.85H52.19v125.91c0,16.6,2.58,30.57,7.73,41.92c5.15,11.35,12.02,20.46,20.6,27.33
				c8.58,6.87,18.22,11.83,28.9,14.88c10.68,3.05,21.46,4.58,32.34,4.58c10.87,0,21.65-1.53,32.34-4.58
				c0.75-0.21,1.49-0.46,2.23-0.7v-81.68C176.02,261.06,173.29,269.26,168.08,276.09z"/>
		</g>
		<path class="st1" d="M231.26,258.92h26.33l35.77,76.69h60.38l-41.21-84.99c11.45-5.15,20.46-12.73,27.04-22.75
			c6.58-10.02,9.87-22.18,9.87-36.48c0-14.69-3.34-27.04-10.02-37.06c-6.68-10.02-16.02-17.6-28.04-22.75
			c-12.02-5.15-25.95-7.73-41.78-7.73h-38.29v47.22h37.43c7.63,0,13.83,1.86,18.6,5.58c4.77,3.72,7.15,9.21,7.15,16.45
			c0,7.06-2.39,12.5-7.15,16.31c-4.77,3.82-10.97,5.72-18.6,5.72h-37.43v34.63c0,16.6-2.58,30.57-7.73,41.92
			c-5.15,11.35-12.02,20.46-20.6,27.33"/>
		<g>
			<path class="st1" d="M176.38,123.85h-0.06v127.67c0.02-0.59,0.06-1.16,0.06-1.76V123.85z"/>
		</g>
		<g>
			<path class="st1" d="M223.6,291.68c5.15-11.35,7.73-25.33,7.73-41.92v-34.63h-0.06v-44.07h0.06v-47.22h-54.94v125.91
				c0,0.6-0.04,1.17-0.06,1.76v81.68c9.79-3.09,18.69-7.8,26.67-14.19C211.58,312.15,218.45,303.04,223.6,291.68z"/>
		</g>
		<g>
			<path class="st1" d="M315.94,387.98l-57.95-128.64l53.91-9.24l41.24,86.95l50.08-160.82h57.23l-70.4,211.76H315.94z"/>
		</g>
	</g>
</g>
</svg>
